<svg width="100" height="100" viewBox="0 0 100 100" fill="none" xmlns="http://www.w3.org/2000/svg">
<g clip-path="url(#clip0)">
<circle cx="50" cy="50" r="50" fill="white" fill-opacity="0.4"/>
<path fill-rule="evenodd" clip-rule="evenodd" d="M50.5537 33.3425C51.456 33.3725 52.3583 33.4759 53.2515 33.6536C55.4985 34.1006 57.6183 35.0036 59.4848 36.2954C60.1927 36.7853 61.0424 37.0279 61.8598 36.9836C61.0425 37.0278 60.1929 36.7852 59.4851 36.2954C57.6186 35.0036 55.4988 34.1005 53.2518 33.6536C52.3585 33.4759 51.4561 33.3725 50.5537 33.3425ZM53.2515 66.3465C53.2516 66.3464 53.2517 66.3465 53.2518 66.3464C55.4988 65.8995 57.6186 64.9964 59.4851 63.7046C59.9765 63.3646 60.5362 63.1436 61.106 63.0551C60.5361 63.1436 59.9763 63.3645 59.4848 63.7047C57.6183 64.9964 55.4985 65.8995 53.2515 66.3465ZM73.5704 73.5704C68.9087 78.2321 62.9693 81.4067 56.5033 82.6928C50.0373 83.979 43.3351 83.3189 37.2442 80.796C31.1533 78.2731 25.9474 74.0007 22.2847 68.519C18.622 63.0374 16.667 56.5927 16.667 50C16.667 43.4073 18.622 36.9626 22.2847 31.481C25.9474 25.9994 31.1533 21.7269 37.2442 19.204C43.3351 16.6811 50.0373 16.021 56.5033 17.3072C62.9693 18.5933 68.9087 21.768 73.5704 26.4296L83.234 16.766C84.4056 15.5944 84.4113 13.6874 83.1716 12.5881C76.5489 6.71598 68.4707 2.69451 59.7545 0.960757C50.0555 -0.968503 40.0021 0.0216655 30.8658 3.80605C21.7295 7.59043 13.9206 13.9991 8.42652 22.2215C2.93245 30.444 0 40.111 0 50C0 59.8891 2.93245 69.5561 8.42652 77.7785C13.9206 86.001 21.7295 92.4096 30.8658 96.194C40.0021 99.9784 50.0555 100.969 59.7545 99.0393C68.4707 97.3055 76.5489 93.2841 83.1716 87.4119C84.4113 86.3127 84.4056 84.4056 83.234 83.234L73.5704 73.5704Z" fill="white"/>
<path fill-rule="evenodd" clip-rule="evenodd" d="M53.2518 33.6536C50.0188 33.0105 46.6677 33.3406 43.6223 34.602C40.5768 35.8635 37.9739 37.9997 36.1425 40.7405C34.3111 43.4813 33.3337 46.7037 33.3337 50C33.3337 53.2964 34.3111 56.5187 36.1425 59.2595C37.9739 62.0003 40.5768 64.1365 43.6223 65.398C46.6677 66.6595 50.0188 66.9895 53.2518 66.3464C55.4988 65.8995 57.6186 64.9964 59.4851 63.7046C60.8475 62.7618 62.7352 62.7349 63.9068 63.9064L73.5706 73.5702C68.9088 78.232 62.9694 81.4067 56.5033 82.6929C50.0373 83.979 43.3351 83.3189 37.2442 80.796C31.1533 78.2731 25.9474 74.0007 22.2847 68.519C18.622 63.0374 16.667 56.5927 16.667 50C16.667 43.4073 18.622 36.9626 22.2847 31.481C25.9474 25.9994 31.1533 21.7269 37.2442 19.204C43.3351 16.6811 50.0373 16.021 56.5033 17.3072C62.9694 18.5933 68.9088 21.768 73.5705 26.4298L63.9068 36.0936C62.7352 37.2651 60.8475 37.2383 59.4851 36.2954C57.6186 35.0036 55.4988 34.1005 53.2518 33.6536Z" fill="white" fill-opacity="0.64"/>
<circle cx="50.0003" cy="50" r="8.33333" fill="#F2EEFF"/>
</g>
<defs>
<clipPath id="clip0">
<rect width="100" height="100" fill="white"/>
</clipPath>
</defs>
</svg>
