<svg width="430" height="430" viewBox="0 0 430 430" fill="none" xmlns="http://www.w3.org/2000/svg">
<circle cx="215" cy="215" r="160" stroke="#8054FF" stroke-width="80"/>
<path d="M167.998 255V242.4H169.51V253.632H175.9V255H167.998ZM182.517 244.488C182.157 244.488 181.857 244.368 181.617 244.128C181.377 243.888 181.257 243.6 181.257 243.264C181.257 242.916 181.377 242.628 181.617 242.4C181.857 242.16 182.157 242.04 182.517 242.04C182.865 242.04 183.159 242.16 183.399 242.4C183.651 242.628 183.777 242.916 183.777 243.264C183.777 243.6 183.651 243.888 183.399 244.128C183.159 244.368 182.865 244.488 182.517 244.488ZM179.025 255V253.704H181.869V247.818C181.869 247.518 181.719 247.368 181.419 247.368H179.331V246.072H181.779C182.847 246.072 183.381 246.606 183.381 247.674V253.704H186.225V255H179.025ZM195.956 258.96V253.668C195.728 254.1 195.392 254.466 194.948 254.766C194.516 255.066 193.928 255.216 193.184 255.216C192.428 255.216 191.75 255.036 191.15 254.676C190.562 254.316 190.094 253.788 189.746 253.092C189.41 252.396 189.242 251.55 189.242 250.554C189.242 249.546 189.41 248.694 189.746 247.998C190.094 247.29 190.556 246.756 191.132 246.396C191.72 246.036 192.374 245.856 193.094 245.856C193.802 245.856 194.396 246.006 194.876 246.306C195.356 246.606 195.716 246.984 195.956 247.44H196.064L196.244 246.072H197.468V258.96H195.956ZM193.382 253.776C194.138 253.776 194.762 253.512 195.254 252.984C195.746 252.444 195.992 251.628 195.992 250.536C195.992 249.444 195.746 248.634 195.254 248.106C194.762 247.566 194.138 247.296 193.382 247.296C192.626 247.296 192.002 247.566 191.51 248.106C191.018 248.634 190.772 249.444 190.772 250.536C190.772 251.628 191.018 252.444 191.51 252.984C192.002 253.512 192.626 253.776 193.382 253.776ZM203.581 255.216C202.501 255.216 201.685 254.892 201.133 254.244C200.581 253.596 200.305 252.66 200.305 251.436V246.072H201.817V251.256C201.817 252.048 201.991 252.672 202.339 253.128C202.699 253.572 203.239 253.794 203.959 253.794C204.679 253.794 205.285 253.554 205.777 253.074C206.269 252.582 206.515 251.88 206.515 250.968V246.072H208.027V255H206.767L206.605 253.65H206.515C206.275 254.082 205.897 254.454 205.381 254.766C204.865 255.066 204.265 255.216 203.581 255.216ZM214.896 244.488C214.536 244.488 214.236 244.368 213.996 244.128C213.756 243.888 213.636 243.6 213.636 243.264C213.636 242.916 213.756 242.628 213.996 242.4C214.236 242.16 214.536 242.04 214.896 242.04C215.244 242.04 215.538 242.16 215.778 242.4C216.03 242.628 216.156 242.916 216.156 243.264C216.156 243.6 216.03 243.888 215.778 244.128C215.538 244.368 215.244 244.488 214.896 244.488ZM211.404 255V253.704H214.248V247.818C214.248 247.518 214.098 247.368 213.798 247.368H211.71V246.072H214.158C215.226 246.072 215.76 246.606 215.76 247.674V253.704H218.604V255H211.404ZM225.49 255.216C224.734 255.216 224.056 255.036 223.456 254.676C222.868 254.316 222.406 253.788 222.07 253.092C221.734 252.384 221.566 251.526 221.566 250.518C221.566 249.522 221.734 248.676 222.07 247.98C222.406 247.284 222.868 246.756 223.456 246.396C224.056 246.036 224.734 245.856 225.49 245.856C226.198 245.856 226.78 245.994 227.236 246.27C227.704 246.546 228.052 246.906 228.28 247.35V242.04H229.792V255H228.55L228.388 253.614H228.28C228.04 254.106 227.686 254.496 227.218 254.784C226.75 255.072 226.174 255.216 225.49 255.216ZM225.688 253.776C226.444 253.776 227.068 253.512 227.56 252.984C228.052 252.444 228.298 251.628 228.298 250.536C228.298 249.444 228.052 248.634 227.56 248.106C227.068 247.566 226.444 247.296 225.688 247.296C224.932 247.296 224.308 247.566 223.816 248.106C223.336 248.634 223.096 249.444 223.096 250.536C223.096 251.628 223.336 252.444 223.816 252.984C224.308 253.512 224.932 253.776 225.688 253.776ZM236.481 244.488C236.121 244.488 235.821 244.368 235.581 244.128C235.341 243.888 235.221 243.6 235.221 243.264C235.221 242.916 235.341 242.628 235.581 242.4C235.821 242.16 236.121 242.04 236.481 242.04C236.829 242.04 237.123 242.16 237.363 242.4C237.615 242.628 237.741 242.916 237.741 243.264C237.741 243.6 237.615 243.888 237.363 244.128C237.123 244.368 236.829 244.488 236.481 244.488ZM232.989 255V253.704H235.833V247.818C235.833 247.518 235.683 247.368 235.383 247.368H233.295V246.072H235.743C236.811 246.072 237.345 246.606 237.345 247.674V253.704H240.189V255H232.989ZM248.318 255C247.502 255 246.86 254.802 246.392 254.406C245.924 254.01 245.69 253.296 245.69 252.264V247.368H243.422V246.072H244.772C245.384 246.072 245.738 245.772 245.834 245.172L246.086 243.786H247.202V246.072H250.766V247.368H247.202V252.264C247.202 252.768 247.316 253.122 247.544 253.326C247.784 253.53 248.192 253.632 248.768 253.632H250.766V255H248.318ZM255.457 258.96L257.653 254.136H257.131L253.603 246.072H255.241L258.175 252.984L261.271 246.072H262.855L257.041 258.96H255.457ZM204.211 278.216C203.371 278.216 202.633 278.06 201.997 277.748C201.373 277.424 200.881 276.986 200.521 276.434C200.161 275.882 199.981 275.252 199.981 274.544C199.981 273.752 200.191 273.08 200.611 272.528C201.031 271.976 201.517 271.592 202.069 271.376V271.286C201.541 271.034 201.115 270.674 200.791 270.206C200.479 269.726 200.323 269.168 200.323 268.532C200.323 267.92 200.479 267.362 200.791 266.858C201.115 266.342 201.571 265.934 202.159 265.634C202.747 265.334 203.431 265.184 204.211 265.184C204.979 265.184 205.651 265.334 206.227 265.634C206.815 265.934 207.271 266.342 207.595 266.858C207.931 267.362 208.099 267.92 208.099 268.532C208.099 269.168 207.937 269.726 207.613 270.206C207.301 270.674 206.881 271.034 206.353 271.286V271.376C206.905 271.592 207.391 271.976 207.811 272.528C208.231 273.08 208.441 273.752 208.441 274.544C208.441 275.252 208.261 275.882 207.901 276.434C207.541 276.986 207.043 277.424 206.407 277.748C205.783 278.06 205.051 278.216 204.211 278.216ZM204.211 270.728C204.955 270.728 205.537 270.536 205.957 270.152C206.389 269.756 206.605 269.246 206.605 268.622C206.605 268.01 206.389 267.512 205.957 267.128C205.537 266.732 204.955 266.534 204.211 266.534C203.467 266.534 202.879 266.732 202.447 267.128C202.027 267.512 201.817 268.01 201.817 268.622C201.817 269.246 202.027 269.756 202.447 270.152C202.879 270.536 203.467 270.728 204.211 270.728ZM204.211 276.848C205.015 276.848 205.663 276.644 206.155 276.236C206.659 275.816 206.911 275.21 206.911 274.418C206.911 273.638 206.659 273.044 206.155 272.636C205.663 272.216 205.015 272.006 204.211 272.006C203.407 272.006 202.753 272.216 202.249 272.636C201.757 273.044 201.511 273.638 201.511 274.418C201.511 275.21 201.757 275.816 202.249 276.236C202.753 276.644 203.407 276.848 204.211 276.848ZM215.004 278.216C214.056 278.216 213.216 277.952 212.484 277.424C211.764 276.896 211.2 276.146 210.792 275.174C210.396 274.202 210.198 273.044 210.198 271.7C210.198 270.356 210.396 269.198 210.792 268.226C211.2 267.254 211.764 266.504 212.484 265.976C213.216 265.448 214.056 265.184 215.004 265.184C215.964 265.184 216.804 265.448 217.524 265.976C218.244 266.504 218.802 267.254 219.198 268.226C219.606 269.198 219.81 270.356 219.81 271.7C219.81 273.044 219.606 274.202 219.198 275.174C218.802 276.146 218.244 276.896 217.524 277.424C216.804 277.952 215.964 278.216 215.004 278.216ZM211.746 271.7C211.746 272.516 211.83 273.254 211.998 273.914C212.178 274.562 212.424 275.108 212.736 275.552L216.228 266.894C215.856 266.69 215.448 266.588 215.004 266.588C214.368 266.588 213.804 266.798 213.312 267.218C212.82 267.626 212.436 268.214 212.16 268.982C211.884 269.738 211.746 270.644 211.746 271.7ZM215.004 276.83C215.64 276.83 216.204 276.626 216.696 276.218C217.188 275.798 217.572 275.204 217.848 274.436C218.124 273.668 218.262 272.756 218.262 271.7C218.262 270.884 218.172 270.152 217.992 269.504C217.824 268.844 217.584 268.292 217.272 267.848L213.762 276.524C214.146 276.728 214.56 276.83 215.004 276.83ZM223.384 270.764C222.616 270.764 221.98 270.512 221.476 270.008C220.984 269.504 220.738 268.826 220.738 267.974C220.738 267.122 220.984 266.444 221.476 265.94C221.98 265.436 222.616 265.184 223.384 265.184C224.152 265.184 224.782 265.436 225.274 265.94C225.778 266.444 226.03 267.122 226.03 267.974C226.03 268.826 225.778 269.504 225.274 270.008C224.782 270.512 224.152 270.764 223.384 270.764ZM223.384 269.684C223.768 269.684 224.104 269.54 224.392 269.252C224.692 268.952 224.842 268.526 224.842 267.974C224.842 267.422 224.692 267.002 224.392 266.714C224.104 266.414 223.768 266.264 223.384 266.264C223 266.264 222.658 266.414 222.358 266.714C222.07 267.002 221.926 267.422 221.926 267.974C221.926 268.526 222.07 268.952 222.358 269.252C222.658 269.54 223 269.684 223.384 269.684ZM221.656 276.83L220.792 275.984L229.936 266.57L230.8 267.416L221.656 276.83ZM228.208 278.216C227.44 278.216 226.804 277.964 226.3 277.46C225.808 276.956 225.562 276.278 225.562 275.426C225.562 274.574 225.808 273.896 226.3 273.392C226.804 272.888 227.44 272.636 228.208 272.636C228.976 272.636 229.606 272.888 230.098 273.392C230.602 273.896 230.854 274.574 230.854 275.426C230.854 276.278 230.602 276.956 230.098 277.46C229.606 277.964 228.976 278.216 228.208 278.216ZM228.208 277.136C228.592 277.136 228.928 276.992 229.216 276.704C229.516 276.404 229.666 275.978 229.666 275.426C229.666 274.874 229.516 274.454 229.216 274.166C228.928 273.866 228.592 273.716 228.208 273.716C227.824 273.716 227.482 273.866 227.182 274.166C226.894 274.454 226.75 274.874 226.75 275.426C226.75 275.978 226.894 276.404 227.182 276.704C227.482 276.992 227.824 277.136 228.208 277.136Z" fill="white"/>
<path d="M162.223 165V152.4H164.869C166.933 152.4 168.457 152.964 169.441 154.092C170.437 155.22 170.935 156.756 170.935 158.7C170.935 160.644 170.437 162.18 169.441 163.308C168.457 164.436 166.933 165 164.869 165H162.223ZM163.735 163.614H164.833C165.937 163.614 166.819 163.41 167.479 163.002C168.151 162.594 168.637 162.024 168.937 161.292C169.237 160.56 169.387 159.696 169.387 158.7C169.387 157.704 169.237 156.84 168.937 156.108C168.637 155.376 168.151 154.806 167.479 154.398C166.819 153.99 165.937 153.786 164.833 153.786H163.735V163.614ZM177.318 165.216C176.478 165.216 175.734 165.024 175.086 164.64C174.45 164.244 173.946 163.698 173.574 163.002C173.202 162.294 173.016 161.472 173.016 160.536C173.016 159.6 173.196 158.784 173.556 158.088C173.928 157.38 174.438 156.834 175.086 156.45C175.734 156.054 176.49 155.856 177.354 155.856C178.218 155.856 178.956 156.054 179.568 156.45C180.18 156.834 180.648 157.344 180.972 157.98C181.296 158.616 181.458 159.3 181.458 160.032C181.458 160.164 181.452 160.296 181.44 160.428C181.44 160.56 181.44 160.71 181.44 160.878H174.51C174.546 161.538 174.696 162.09 174.96 162.534C175.236 162.966 175.578 163.29 175.986 163.506C176.406 163.722 176.85 163.83 177.318 163.83C177.978 163.83 178.494 163.692 178.866 163.416C179.238 163.14 179.52 162.756 179.712 162.264H181.206C181.002 163.092 180.576 163.794 179.928 164.37C179.28 164.934 178.41 165.216 177.318 165.216ZM177.318 157.206C176.622 157.206 176.01 157.416 175.482 157.836C174.966 158.256 174.648 158.844 174.528 159.6H179.964C179.916 158.856 179.646 158.274 179.154 157.854C178.674 157.422 178.062 157.206 177.318 157.206ZM187.139 165L183.215 156.072H184.943L188.021 163.344L191.117 156.072H192.827L188.885 165H187.139ZM205.395 165V152.4H209.589C210.897 152.4 211.881 152.7 212.541 153.3C213.201 153.9 213.531 154.668 213.531 155.604C213.531 156.336 213.333 156.942 212.937 157.422C212.541 157.89 212.097 158.22 211.605 158.412V158.538C212.193 158.73 212.709 159.078 213.153 159.582C213.597 160.086 213.819 160.734 213.819 161.526C213.819 162.174 213.657 162.762 213.333 163.29C213.021 163.806 212.559 164.22 211.947 164.532C211.347 164.844 210.609 165 209.733 165H205.395ZM206.907 157.836H209.481C210.285 157.836 210.897 157.662 211.317 157.314C211.749 156.954 211.965 156.438 211.965 155.766C211.965 155.13 211.755 154.638 211.335 154.29C210.915 153.942 210.279 153.768 209.427 153.768H206.907V157.836ZM206.907 163.614H209.571C210.435 163.614 211.101 163.422 211.569 163.038C212.037 162.642 212.271 162.09 212.271 161.382C212.271 160.674 212.025 160.128 211.533 159.744C211.041 159.348 210.375 159.15 209.535 159.15H206.907V163.614ZM219.77 165.216C218.69 165.216 217.874 164.892 217.322 164.244C216.77 163.596 216.494 162.66 216.494 161.436V156.072H218.006V161.256C218.006 162.048 218.18 162.672 218.528 163.128C218.888 163.572 219.428 163.794 220.148 163.794C220.868 163.794 221.474 163.554 221.966 163.074C222.458 162.582 222.704 161.88 222.704 160.968V156.072H224.216V165H222.956L222.794 163.65H222.704C222.464 164.082 222.086 164.454 221.57 164.766C221.054 165.066 220.454 165.216 219.77 165.216ZM230.887 165.216C230.131 165.216 229.453 165.036 228.853 164.676C228.265 164.316 227.803 163.788 227.467 163.092C227.131 162.384 226.963 161.526 226.963 160.518C226.963 159.522 227.131 158.676 227.467 157.98C227.803 157.284 228.265 156.756 228.853 156.396C229.453 156.036 230.131 155.856 230.887 155.856C231.595 155.856 232.177 155.994 232.633 156.27C233.101 156.546 233.449 156.906 233.677 157.35V152.04H235.189V165H233.947L233.785 163.614H233.677C233.437 164.106 233.083 164.496 232.615 164.784C232.147 165.072 231.571 165.216 230.887 165.216ZM231.085 163.776C231.841 163.776 232.465 163.512 232.957 162.984C233.449 162.444 233.695 161.628 233.695 160.536C233.695 159.444 233.449 158.634 232.957 158.106C232.465 157.566 231.841 157.296 231.085 157.296C230.329 157.296 229.705 157.566 229.213 158.106C228.733 158.634 228.493 159.444 228.493 160.536C228.493 161.628 228.733 162.444 229.213 162.984C229.705 163.512 230.329 163.776 231.085 163.776ZM241.824 162.372C241.2 162.372 240.642 162.258 240.15 162.03L239.538 162.768C239.406 162.948 239.37 163.128 239.43 163.308C239.502 163.476 239.676 163.56 239.952 163.56H242.31C243.378 163.56 244.242 163.77 244.902 164.19C245.562 164.598 245.892 165.252 245.892 166.152C245.892 166.692 245.754 167.19 245.478 167.646C245.202 168.102 244.764 168.468 244.164 168.744C243.576 169.032 242.802 169.176 241.842 169.176C240.594 169.176 239.592 168.942 238.836 168.474C238.08 168.006 237.702 167.292 237.702 166.332C237.702 165.984 237.786 165.66 237.954 165.36C238.134 165.072 238.356 164.814 238.62 164.586C238.272 164.37 238.056 164.046 237.972 163.614C237.9 163.182 238.032 162.756 238.368 162.336L239.178 161.328C238.602 160.728 238.314 159.99 238.314 159.114C238.314 158.538 238.452 158.004 238.728 157.512C239.004 157.008 239.4 156.606 239.916 156.306C240.444 156.006 241.08 155.856 241.824 155.856C242.304 155.856 242.748 155.928 243.156 156.072H246.504V157.206L244.83 157.26V157.386C245.142 157.902 245.298 158.478 245.298 159.114C245.298 159.69 245.16 160.23 244.884 160.734C244.62 161.226 244.224 161.622 243.696 161.922C243.18 162.222 242.556 162.372 241.824 162.372ZM241.824 161.076C242.412 161.076 242.892 160.902 243.264 160.554C243.648 160.206 243.84 159.726 243.84 159.114C243.84 158.502 243.648 158.028 243.264 157.692C242.892 157.344 242.412 157.17 241.824 157.17C241.224 157.17 240.732 157.344 240.348 157.692C239.964 158.028 239.772 158.502 239.772 159.114C239.772 159.726 239.964 160.206 240.348 160.554C240.732 160.902 241.224 161.076 241.824 161.076ZM239.196 166.278C239.196 166.806 239.442 167.202 239.934 167.466C240.426 167.73 241.062 167.862 241.842 167.862C242.598 167.862 243.21 167.712 243.678 167.412C244.158 167.112 244.398 166.71 244.398 166.206C244.398 165.81 244.23 165.474 243.894 165.198C243.558 164.934 242.94 164.802 242.04 164.802H240.006C239.466 165.198 239.196 165.69 239.196 166.278ZM252.869 165.216C252.029 165.216 251.285 165.024 250.637 164.64C250.001 164.244 249.497 163.698 249.125 163.002C248.753 162.294 248.567 161.472 248.567 160.536C248.567 159.6 248.747 158.784 249.107 158.088C249.479 157.38 249.989 156.834 250.637 156.45C251.285 156.054 252.041 155.856 252.905 155.856C253.769 155.856 254.507 156.054 255.119 156.45C255.731 156.834 256.199 157.344 256.523 157.98C256.847 158.616 257.009 159.3 257.009 160.032C257.009 160.164 257.003 160.296 256.991 160.428C256.991 160.56 256.991 160.71 256.991 160.878H250.061C250.097 161.538 250.247 162.09 250.511 162.534C250.787 162.966 251.129 163.29 251.537 163.506C251.957 163.722 252.401 163.83 252.869 163.83C253.529 163.83 254.045 163.692 254.417 163.416C254.789 163.14 255.071 162.756 255.263 162.264H256.757C256.553 163.092 256.127 163.794 255.479 164.37C254.831 164.934 253.961 165.216 252.869 165.216ZM252.869 157.206C252.173 157.206 251.561 157.416 251.033 157.836C250.517 158.256 250.199 158.844 250.079 159.6H255.515C255.467 158.856 255.197 158.274 254.705 157.854C254.225 157.422 253.613 157.206 252.869 157.206ZM264.508 165C263.692 165 263.05 164.802 262.582 164.406C262.114 164.01 261.88 163.296 261.88 162.264V157.368H259.612V156.072H260.962C261.574 156.072 261.928 155.772 262.024 155.172L262.276 153.786H263.392V156.072H266.956V157.368H263.392V162.264C263.392 162.768 263.506 163.122 263.734 163.326C263.974 163.53 264.382 163.632 264.958 163.632H266.956V165H264.508ZM200.143 188V186.812C201.439 185.78 202.567 184.832 203.527 183.968C204.499 183.104 205.249 182.27 205.777 181.466C206.305 180.662 206.569 179.84 206.569 179C206.569 178.244 206.353 177.65 205.921 177.218C205.501 176.774 204.931 176.552 204.211 176.552C203.659 176.552 203.191 176.672 202.807 176.912C202.423 177.152 202.135 177.47 201.943 177.866C201.751 178.262 201.655 178.688 201.655 179.144H200.161C200.173 178.316 200.353 177.608 200.701 177.02C201.061 176.42 201.541 175.964 202.141 175.652C202.753 175.34 203.443 175.184 204.211 175.184C205.447 175.184 206.407 175.526 207.091 176.21C207.775 176.894 208.117 177.812 208.117 178.964C208.117 179.72 207.955 180.446 207.631 181.142C207.307 181.826 206.875 182.486 206.335 183.122C205.795 183.758 205.189 184.37 204.517 184.958C203.845 185.546 203.167 186.11 202.483 186.65H208.459V188H200.143ZM215.004 188.216C214.056 188.216 213.216 187.952 212.484 187.424C211.764 186.896 211.2 186.146 210.792 185.174C210.396 184.202 210.198 183.044 210.198 181.7C210.198 180.356 210.396 179.198 210.792 178.226C211.2 177.254 211.764 176.504 212.484 175.976C213.216 175.448 214.056 175.184 215.004 175.184C215.964 175.184 216.804 175.448 217.524 175.976C218.244 176.504 218.802 177.254 219.198 178.226C219.606 179.198 219.81 180.356 219.81 181.7C219.81 183.044 219.606 184.202 219.198 185.174C218.802 186.146 218.244 186.896 217.524 187.424C216.804 187.952 215.964 188.216 215.004 188.216ZM211.746 181.7C211.746 182.516 211.83 183.254 211.998 183.914C212.178 184.562 212.424 185.108 212.736 185.552L216.228 176.894C215.856 176.69 215.448 176.588 215.004 176.588C214.368 176.588 213.804 176.798 213.312 177.218C212.82 177.626 212.436 178.214 212.16 178.982C211.884 179.738 211.746 180.644 211.746 181.7ZM215.004 186.83C215.64 186.83 216.204 186.626 216.696 186.218C217.188 185.798 217.572 185.204 217.848 184.436C218.124 183.668 218.262 182.756 218.262 181.7C218.262 180.884 218.172 180.152 217.992 179.504C217.824 178.844 217.584 178.292 217.272 177.848L213.762 186.524C214.146 186.728 214.56 186.83 215.004 186.83ZM223.384 180.764C222.616 180.764 221.98 180.512 221.476 180.008C220.984 179.504 220.738 178.826 220.738 177.974C220.738 177.122 220.984 176.444 221.476 175.94C221.98 175.436 222.616 175.184 223.384 175.184C224.152 175.184 224.782 175.436 225.274 175.94C225.778 176.444 226.03 177.122 226.03 177.974C226.03 178.826 225.778 179.504 225.274 180.008C224.782 180.512 224.152 180.764 223.384 180.764ZM223.384 179.684C223.768 179.684 224.104 179.54 224.392 179.252C224.692 178.952 224.842 178.526 224.842 177.974C224.842 177.422 224.692 177.002 224.392 176.714C224.104 176.414 223.768 176.264 223.384 176.264C223 176.264 222.658 176.414 222.358 176.714C222.07 177.002 221.926 177.422 221.926 177.974C221.926 178.526 222.07 178.952 222.358 179.252C222.658 179.54 223 179.684 223.384 179.684ZM221.656 186.83L220.792 185.984L229.936 176.57L230.8 177.416L221.656 186.83ZM228.208 188.216C227.44 188.216 226.804 187.964 226.3 187.46C225.808 186.956 225.562 186.278 225.562 185.426C225.562 184.574 225.808 183.896 226.3 183.392C226.804 182.888 227.44 182.636 228.208 182.636C228.976 182.636 229.606 182.888 230.098 183.392C230.602 183.896 230.854 184.574 230.854 185.426C230.854 186.278 230.602 186.956 230.098 187.46C229.606 187.964 228.976 188.216 228.208 188.216ZM228.208 187.136C228.592 187.136 228.928 186.992 229.216 186.704C229.516 186.404 229.666 185.978 229.666 185.426C229.666 184.874 229.516 184.454 229.216 184.166C228.928 183.866 228.592 183.716 228.208 183.716C227.824 183.716 227.482 183.866 227.182 184.166C226.894 184.454 226.75 184.874 226.75 185.426C226.75 185.978 226.894 186.404 227.182 186.704C227.482 186.992 227.824 187.136 228.208 187.136Z" fill="white"/>
<path d="M215 55C248.789 55 281.71 65.6968 309.046 85.5573C336.381 105.418 356.728 133.422 367.169 165.557" stroke="#A485FF" stroke-width="80"/>
</svg>
